# Blender v2.92.0 OBJ File: ''
# www.blender.org
mtllib doorblock.mtl
o Cube
v -1.750000 -1.000000 -0.250000
v 0.250000 -1.000000 -0.250000
v -1.750000 -1.000000 0.250000
v 0.250000 -1.000000 0.250000
v 0.250000 3.000000 -0.250000
v 0.250000 3.000000 0.250000
v -1.750000 3.000000 -0.250000
v -1.750000 3.000000 0.250000
vt 0.833297 0.000002
vt 0.833297 0.999996
vt 0.166667 0.999996
vt 0.166667 0.000002
vt 0.447305 0.479152
vt 0.447305 0.512898
vt 0.378076 0.518211
vt 0.378076 0.473839
vt 0.826336 0.000510
vt 0.711127 0.000510
vt 0.711127 0.500483
vt 0.826336 0.500483
vt 0.166667 0.000002
vt 0.166667 0.999996
vt 0.833297 0.999996
vt 0.833297 0.000002
vt 0.833297 0.437496
vt 0.833297 0.411509
vt 0.166667 0.411509
vt 0.166667 0.437496
vt 0.383390 0.480905
vt 0.383390 0.519094
vt 0.449944 0.514521
vt 0.449944 0.485477
vn 0.0000 0.0000 -1.0000
vn -1.0000 0.0000 0.0000
vn 0.0000 -1.0000 0.0000
vn -0.0000 0.0000 1.0000
vn 0.0000 1.0000 0.0000
vn 1.0000 0.0000 0.0000
g Cube_Cube_Material
usemtl Material
s off
f 1/1/1 7/2/1 5/3/1 2/4/1
f 3/5/2 8/6/2 7/7/2 1/8/2
f 3/9/3 1/10/3 2/11/3 4/12/3
f 4/13/4 6/14/4 8/15/4 3/16/4
f 7/17/5 8/18/5 6/19/5 5/20/5
f 2/21/6 5/22/6 6/23/6 4/24/6
