# Blender v2.92.0 OBJ File: 'newdoor_fixed.blend'
# www.blender.org
mtllib doorblock.mtl
o Plane.001_Plane.005
v 0.119207 2.949999 0.050000
v 0.119207 2.657866 0.050000
v 0.119207 2.285673 0.050000
v 0.743232 2.285673 0.050000
v 0.999924 1.785673 0.050000
v 0.999924 2.657866 0.050000
v 0.743232 2.949999 0.350000
v 0.999924 -1.049999 0.350000
v 0.119207 2.157866 0.050000
v 0.743232 -1.049999 0.350000
v 0.119207 1.785673 0.050000
v 0.999924 2.949999 0.350000
v 0.743232 2.157866 0.050000
v 0.999924 2.285673 0.050000
v 0.119207 -1.049999 0.050000
v 0.999924 -1.049999 0.050000
v 0.743232 -1.049999 0.050000
v 0.743232 2.949999 0.050000
v 0.999924 2.949999 0.050000
v 0.743232 2.657866 0.050000
v 0.999924 2.157866 0.050000
v 0.743232 1.785673 0.050000
v 0.743232 2.657866 0.350000
v 0.999924 2.657866 0.350000
v 0.743232 2.285673 0.350000
v 0.119207 2.949999 0.350000
v 0.119207 2.657866 0.350000
v 0.119207 2.285673 0.350000
v 0.119207 2.157866 0.350000
v 0.119207 1.785673 0.350000
v 0.743232 2.157866 0.350000
v 0.999924 2.285673 0.350000
v 0.999924 2.157866 0.350000
v 0.743232 1.785673 0.350000
v 0.999924 1.785673 0.350000
v 0.119207 -1.049999 0.350000
v -0.119207 2.949999 0.050000
v -0.119207 2.657866 0.050000
v -0.119207 2.285673 0.050000
v -0.743232 2.285673 0.050000
v -0.999924 1.785673 0.050000
v -0.999924 2.657866 0.050000
v -0.743232 2.949999 0.350000
v -0.999924 -1.049999 0.350000
v -0.119207 2.157866 0.050000
v -0.743232 -1.049999 0.350000
v -0.119207 1.785673 0.050000
v -0.999924 2.949999 0.350000
v -0.743232 2.157866 0.050000
v -0.999924 2.285673 0.050000
v -0.119207 -1.049999 0.050000
v -0.999924 -1.049999 0.050000
v -0.743232 -1.049999 0.050000
v -0.743232 2.949999 0.050000
v -0.999924 2.949999 0.050000
v -0.743232 2.657866 0.050000
v -0.999924 2.157866 0.050000
v -0.743232 1.785673 0.050000
v -0.743232 2.657866 0.350000
v -0.999924 2.657866 0.350000
v -0.743232 2.285673 0.350000
v -0.119207 2.949999 0.350000
v -0.119207 2.657866 0.350000
v -0.119207 2.285673 0.350000
v -0.119207 2.157866 0.350000
v -0.119207 1.785673 0.350000
v -0.743232 2.157866 0.350000
v -0.999924 2.285673 0.350000
v -0.999924 2.157866 0.350000
v -0.743232 1.785673 0.350000
v -0.999924 1.785673 0.350000
v -0.119207 -1.049999 0.350000
vt 0.708340 0.999996
vt 0.708340 0.906255
vt 0.541661 0.906255
vt 0.541661 0.999996
vt 0.833315 0.812497
vt 0.708340 0.812497
vt 0.833315 0.906255
vt 0.541661 0.812497
vt 0.541661 0.750003
vt 0.458339 0.750003
vt 0.458339 0.812497
vt 0.541661 0.656247
vt 0.458339 0.656247
vt 0.541661 0.000004
vt 0.458339 0.000004
vt 0.538349 0.999998
vt 0.538349 0.937527
vt 0.460146 0.937527
vt 0.460146 0.999998
vt 0.833315 0.999996
vt 0.833315 0.750003
vt 0.708340 0.750003
vt 0.833315 0.656247
vt 0.708340 0.656247
vt 0.833315 0.000004
vt 0.708340 0.000004
vt 0.528850 0.218755
vt 0.465479 0.218755
vt 0.465479 0.281248
vt 0.528850 0.281248
vt 0.380675 0.986142
vt 0.380675 0.986142
vt 0.380675 0.986142
vt 0.380675 0.986142
vt 0.589021 0.987382
vt 0.589021 0.987382
vt 0.589021 0.987382
vt 0.589021 0.987382
vt 0.541660 0.794452
vt 0.458340 0.794452
vt 0.458340 0.710910
vt 0.541660 0.710910
vt 0.541660 0.906256
vt 0.458339 0.906256
vt 0.458339 0.999996
vt 0.541660 0.999996
vt 0.589021 0.987382
vt 0.589021 0.987382
vt 0.589021 0.987382
vt 0.589021 0.987382
vt 0.743038 0.937527
vt 0.743038 0.999998
vt 0.833317 0.999998
vt 0.833317 0.937527
vt 0.380675 0.986142
vt 0.380675 0.986142
vt 0.380675 0.986142
vt 0.380675 0.986142
vt 0.166672 0.218755
vt 0.166672 0.281248
vt 0.299610 0.281248
vt 0.299610 0.218755
vt 0.541660 0.916714
vt 0.458340 0.916714
vt 0.458340 0.592023
vt 0.541660 0.592023
vt 0.291660 0.999996
vt 0.291660 0.906255
vt 0.166674 0.812497
vt 0.166674 0.906255
vt 0.291660 0.812497
vt 0.458339 0.750003
vt 0.458339 0.812497
vt 0.541660 0.812497
vt 0.541660 0.750003
vt 0.458339 0.656247
vt 0.541661 0.656247
vt 0.541661 0.000004
vt 0.458339 0.000004
vt 0.458339 0.906255
vt 0.458339 0.999996
vt 0.166674 0.999996
vt 0.166674 0.750003
vt 0.291660 0.750003
vt 0.166674 0.656248
vt 0.291660 0.656248
vt 0.291659 0.000004
vt 0.166674 0.000004
vt 0.541660 0.999997
vt 0.458340 0.999997
vt 0.458340 0.000005
vt 0.541660 0.000005
vt 0.291660 0.999996
vt 0.291660 0.906255
vt 0.166674 0.812497
vt 0.166674 0.906255
vt 0.291660 0.812497
vt 0.166674 0.999996
vt 0.166674 0.750003
vt 0.291660 0.750003
vt 0.166674 0.656248
vt 0.291660 0.656248
vt 0.291660 0.000004
vt 0.166674 0.000004
vt 0.402441 0.982465
vt 0.402441 0.982465
vt 0.402441 0.982465
vt 0.402441 0.982465
vt 0.370753 0.982421
vt 0.370753 0.982421
vt 0.370753 0.982421
vt 0.370753 0.982421
vt 0.458335 0.780113
vt 0.458335 0.709221
vt 0.541661 0.709221
vt 0.541661 0.780113
vt 0.370753 0.982421
vt 0.370753 0.982421
vt 0.370753 0.982421
vt 0.370753 0.982421
vt 0.255458 0.937527
vt 0.166674 0.937527
vt 0.166674 0.999998
vt 0.255458 0.999998
vt 0.402441 0.982465
vt 0.402441 0.982465
vt 0.402441 0.982465
vt 0.402441 0.982465
vt 0.833329 0.218755
vt 0.694719 0.218755
vt 0.694719 0.281248
vt 0.833329 0.281248
vt 0.458335 0.893144
vt 0.541661 0.893144
vt 0.458335 0.626889
vt 0.541661 0.626889
vt 0.708339 0.999996
vt 0.708339 0.906256
vt 0.833315 0.812497
vt 0.708339 0.812497
vt 0.833315 0.906256
vt 0.833315 0.999996
vt 0.833315 0.750003
vt 0.708339 0.750003
vt 0.833315 0.656247
vt 0.708339 0.656248
vt 0.833315 0.000004
vt 0.708340 0.000004
vt 0.458335 0.999999
vt 0.541661 0.999999
vt 0.458335 0.000003
vt 0.541661 0.000003
vn 0.0000 -0.0000 -1.0000
vn 0.0000 1.0000 0.0000
vn 0.0000 -1.0000 0.0000
vn 1.0000 -0.0000 0.0000
vn 0.0000 0.0000 1.0000
vn -1.0000 -0.0000 0.0000
usemtl Material
s off
f 18/1/1 20/2/1 2/3/1 1/4/1
f 14/5/1 4/6/1 20/2/1 6/7/1
f 3/8/1 9/9/1 45/10/1 39/11/1
f 9/9/1 11/12/1 47/13/1 45/10/1
f 47/13/1 11/12/1 15/14/1 51/15/1
f 26/16/2 1/17/2 37/18/2 62/19/2
f 6/7/1 20/2/1 18/1/1 19/20/1
f 21/21/1 13/22/1 4/6/1 14/5/1
f 3/8/1 4/6/1 13/22/1 9/9/1
f 5/23/1 22/24/1 13/22/1 21/21/1
f 5/23/1 16/25/1 17/26/1 22/24/1
f 51/27/3 15/28/3 36/29/3 72/30/3
f 15/14/1 11/12/1 22/24/1 17/26/1
f 20/31/3 23/32/3 27/33/3 2/34/3
f 11/35/2 30/36/2 34/37/2 22/38/2
f 14/39/4 32/40/4 33/41/4 21/42/4
f 63/43/5 27/44/5 26/45/5 62/46/5
f 13/47/3 31/48/3 29/49/3 9/50/3
f 18/51/2 7/52/2 12/53/2 19/54/2
f 3/55/2 28/56/2 25/57/2 4/58/2
f 16/59/3 8/60/3 10/61/3 17/62/3
f 6/63/4 24/64/4 32/40/4 14/39/4
f 1/17/2 26/16/2 7/52/2 18/51/2
f 17/62/3 10/61/3 36/29/3 15/28/3
f 2/34/4 27/33/4 28/56/4 3/55/4
f 21/42/4 33/41/4 35/65/4 5/66/4
f 7/67/5 26/45/5 27/44/5 23/68/5
f 32/69/5 24/70/5 23/68/5 25/71/5
f 29/72/5 28/73/5 64/74/5 65/75/5
f 30/76/5 29/72/5 65/75/5 66/77/5
f 66/77/5 72/78/5 36/79/5 30/76/5
f 38/80/1 37/81/1 1/4/1 2/3/1
f 24/70/5 12/82/5 7/67/5 23/68/5
f 33/83/5 32/69/5 25/71/5 31/84/5
f 28/73/5 29/72/5 31/84/5 25/71/5
f 35/85/5 33/83/5 31/84/5 34/86/5
f 35/85/5 34/86/5 10/87/5 8/88/5
f 28/73/5 27/44/5 63/43/5 64/74/5
f 36/79/5 10/87/5 34/86/5 30/76/5
f 22/38/6 34/37/6 31/48/6 13/47/6
f 19/89/4 12/90/4 24/64/4 6/63/4
f 5/66/4 35/65/4 8/91/4 16/92/4
f 4/58/6 25/57/6 23/32/6 20/31/6
f 9/50/4 29/49/4 30/36/4 11/35/4
f 54/93/1 37/81/1 38/80/1 56/94/1
f 50/95/1 42/96/1 56/94/1 40/97/1
f 42/96/1 55/98/1 54/93/1 56/94/1
f 57/99/1 50/95/1 40/97/1 49/100/1
f 39/11/1 45/10/1 49/100/1 40/97/1
f 41/101/1 57/99/1 49/100/1 58/102/1
f 41/101/1 58/102/1 53/103/1 52/104/1
f 51/15/1 53/103/1 58/102/1 47/13/1
f 56/105/3 38/106/3 63/107/3 59/108/3
f 47/109/2 58/110/2 70/111/2 66/112/2
f 50/113/6 57/114/6 69/115/6 68/116/6
f 49/117/3 45/118/3 65/119/3 67/120/3
f 54/121/2 55/122/2 48/123/2 43/124/2
f 39/125/2 40/126/2 61/127/2 64/128/2
f 52/129/3 53/130/3 46/131/3 44/132/3
f 42/133/6 50/113/6 68/116/6 60/134/6
f 37/18/2 54/121/2 43/124/2 62/19/2
f 53/130/3 51/27/3 72/30/3 46/131/3
f 38/106/6 39/125/6 64/128/6 63/107/6
f 57/114/6 41/135/6 71/136/6 69/115/6
f 43/137/5 59/138/5 63/43/5 62/46/5
f 68/139/5 61/140/5 59/138/5 60/141/5
f 60/141/5 59/138/5 43/137/5 48/142/5
f 69/143/5 67/144/5 61/140/5 68/139/5
f 64/74/5 61/140/5 67/144/5 65/75/5
f 71/145/5 70/146/5 67/144/5 69/143/5
f 71/145/5 44/147/5 46/148/5 70/146/5
f 72/78/5 66/77/5 70/146/5 46/148/5
f 58/110/4 49/117/4 67/120/4 70/111/4
f 55/149/6 42/133/6 60/134/6 48/150/6
f 41/135/6 52/151/6 44/152/6 71/136/6
f 40/126/4 56/105/4 59/108/4 61/127/4
f 45/118/6 47/109/6 66/112/6 65/119/6
f 2/3/1 3/8/1 39/11/1 38/80/1
