# Blender v2.92.0 OBJ File: ''
# www.blender.org
mtllib stairsblock.mtl
o Cube_Cube.001
v 1.000000 -1.000000 -1.000000
v 1.000000 -1.000000 1.000000
v -1.000000 -1.000000 -1.000000
v -1.000000 1.000000 -1.000000
v -1.000000 -1.000000 1.000000
v -1.000000 1.000000 1.000000
v -0.000003 1.000000 -1.000000
v 1.000000 -0.000003 -1.000000
v -0.000003 -0.000003 -1.000000
v 1.000000 -0.000003 1.000000
v -0.000003 1.000000 1.000000
v -0.000003 -0.000003 1.000000
vt 0.833319 0.500000
vt 0.666660 0.750000
vt 0.666660 0.500000
vt 0.333340 0.750000
vt 0.333340 0.500000
vt 0.437669 0.249501
vt 0.604328 -0.000499
vt 0.604328 0.249501
vt 0.000021 0.750000
vt 0.000021 0.500000
vt 0.499999 0.375000
vt 0.999979 0.750000
vt 0.833319 0.750000
vt 0.604169 0.578144
vt 0.270836 0.703139
vt 0.270836 0.578144
vt 0.499999 0.875000
vt 0.333340 1.000000
vt 0.437669 -0.000499
vt 0.333340 0.250000
vt 0.499999 0.250000
vt 0.666660 0.375000
vt 0.999979 0.500000
vt 0.604169 0.703139
vt 0.666660 0.875000
vt 0.499999 1.000000
vn 0.0000 1.0000 0.0000
vn -1.0000 0.0000 0.0000
vn 1.0000 0.0000 0.0000
vn 0.0000 -1.0000 0.0000
vn 0.0000 0.0000 1.0000
vn 0.0000 0.0000 -1.0000
usemtl Material.001
s off
f 11/1/1 4/2/1 6/3/1
f 6/3/2 3/4/2 5/5/2
f 8/6/3 2/7/3 1/8/3
f 5/5/4 1/9/4 2/10/4
f 12/11/5 6/3/5 5/5/5
f 11/1/3 9/12/3 7/13/3
f 12/14/1 8/15/1 9/16/1
f 3/4/6 9/17/6 1/18/6
f 11/1/1 7/13/1 4/2/1
f 6/3/2 4/2/2 3/4/2
f 8/6/3 10/19/3 2/7/3
f 5/5/4 3/4/4 1/9/4
f 5/5/5 2/20/5 12/11/5
f 2/20/5 10/21/5 12/11/5
f 12/11/5 11/22/5 6/3/5
f 11/1/3 12/23/3 9/12/3
f 12/14/1 10/24/1 8/15/1
f 3/4/6 4/2/6 9/17/6
f 4/2/6 7/25/6 9/17/6
f 9/17/6 8/26/6 1/18/6
